<svg width="582" height="200" xmlns="http://www.w3.org/2000/svg" fill="none">
 <defs>
  <linearGradient y2="1.10303" x2="1.02024" y1="-0.05718" x1="0.01459" id="paint0_linear">
   <stop stop-color="rgba(104, 211, 145, 0.2)"/>
   <stop stop-opacity="0" stop-color="white" offset="0.46875"/>
   <stop stop-color="rgba(104, 211, 145, 0.2)" offset="1"/>
  </linearGradient>
 </defs>
 <g>
  <title>Layer 1</title>
  <path id="svg_1" fill="white" d="m149.202,32.32l29.049,29.0456l-88.4483,0c-15.464,0 -28,12.536 -28,28l0,10.2202l-30.4014,30.3982l-30.4013,-30.3982l0,-13.5858c0,-46.9442 38.0558,-85 85,-85l93.111,0l-29.909,29.9058l-0.707,0.7071l0.707,0.7071zm342.987,29.0456l-90.16,0l29.048,-29.0456l0.708,-0.7071l-0.708,-0.7071l-29.909,-29.9058l94.835,0c46.945,0 84.997,38.0557 84.997,85l0,4.7685l-30.616,30.6135l-30.187,-30.1834l0,-1.8343c0,-15.4645 -12.545,-27.9987 -28.008,-27.9987zm-283.911,137.6344l-15.632,0c2.098,-2.035 5.616,-5.528 9.742,-9.654c5.947,-5.946 13.211,-13.259 19.463,-19.569l0.701,-0.707l-0.704,-0.704l-29.305,-29.301l13.933,0c7.425,0 14.547,-2.95 19.798,-8.2l25.644,-25.642l44.091,-44.0857l36.102,-36.0982c15.296,-15.29469 36.007,-23.9294 57.627,-24.03806l30.615,30.61186l-29.76,29.7563c-6.173,0.1081 -12.071,2.6072 -16.444,6.9805l-35.464,35.4593l-44.091,44.086l-26.215,26.212c-15.94,15.939 -37.559,24.893 -60.101,24.893zm311.919,-87.935l0,-8.436l29.48,29.476l0.707,0.707l0.707,-0.707l29.909,-29.906l0,11.801c0,46.944 -38.059,85 -85.003,85l-97.73,0l-29.93,-29.927l30.012,-30.008l93.84,0c15.464,0 28.008,-12.536 28.008,-28zm-458.3943,-0.252l0,0.252c0,15.464 12.536,28 28,28l91.3083,0l30.011,30.007l-30.01,29.928l-95.112,0c-46.9442,0 -85,-38.056 -85,-85l0,-3.187l29.6919,29.892l0.7094,0.714l0.7095,-0.714l29.6919,-29.892zm295.8093,58.967l29.223,29.22l-4.51,0c-22.542,0 -44.161,-8.954 -60.101,-24.893l-21.852,-21.849l42.677,-42.672l21.281,21.279c5.251,5.25 12.372,8.2 19.797,8.2l2.79,0l-29.305,29.301l-0.707,0.707l0.707,0.707zm-197.686,-138.1671l30.617,-30.6129l8.701,0c22.541,0 44.162,8.95405 60.102,24.8926l30.885,30.8816l-42.677,42.6719l-29.884,-29.8806c-5.25,-5.2503 -12.372,-8.1999 -19.797,-8.1999l-8.191,0l-29.756,-29.7527z"/>
  <path id="svg_2" fill="url(#paint0_linear)" d="m149.202,32.32l29.049,29.0456l-88.4483,0c-15.464,0 -28,12.536 -28,28l0,10.2202l-30.4014,30.3982l-30.4013,-30.3982l0,-13.5858c0,-46.9442 38.0558,-85 85,-85l93.111,0l-29.909,29.9058l-0.707,0.7071l0.707,0.7071zm342.987,29.0456l-90.16,0l29.048,-29.0456l0.708,-0.7071l-0.708,-0.7071l-29.909,-29.9058l94.835,0c46.945,0 84.997,38.0557 84.997,85l0,4.7685l-30.616,30.6135l-30.187,-30.1834l0,-1.8343c0,-15.4645 -12.545,-27.9987 -28.008,-27.9987zm-283.911,137.6344l-15.632,0c2.098,-2.035 5.616,-5.528 9.742,-9.654c5.947,-5.946 13.211,-13.259 19.463,-19.569l0.701,-0.707l-0.704,-0.704l-29.305,-29.301l13.933,0c7.425,0 14.547,-2.95 19.798,-8.2l25.644,-25.642l44.091,-44.0857l36.102,-36.0982c15.296,-15.29469 36.007,-23.9294 57.627,-24.03806l30.615,30.61186l-29.76,29.7563c-6.173,0.1081 -12.071,2.6072 -16.444,6.9805l-35.464,35.4593l-44.091,44.086l-26.215,26.212c-15.94,15.939 -37.559,24.893 -60.101,24.893zm311.919,-87.935l0,-8.436l29.48,29.476l0.707,0.707l0.707,-0.707l29.909,-29.906l0,11.801c0,46.944 -38.059,85 -85.003,85l-97.73,0l-29.93,-29.927l30.012,-30.008l93.84,0c15.464,0 28.008,-12.536 28.008,-28zm-458.3943,-0.252l0,0.252c0,15.464 12.536,28 28,28l91.3083,0l30.011,30.007l-30.01,29.928l-95.112,0c-46.9442,0 -85,-38.056 -85,-85l0,-3.187l29.6919,29.892l0.7094,0.714l0.7095,-0.714l29.6919,-29.892zm295.8093,58.967l29.223,29.22l-4.51,0c-22.542,0 -44.161,-8.954 -60.101,-24.893l-21.852,-21.849l42.677,-42.672l21.281,21.279c5.251,5.25 12.372,8.2 19.797,8.2l2.79,0l-29.305,29.301l-0.707,0.707l0.707,0.707zm-197.686,-138.1671l30.617,-30.6129l8.701,0c22.541,0 44.162,8.95405 60.102,24.8926l30.885,30.8816l-42.677,42.6719l-29.884,-29.8806c-5.25,-5.2503 -12.372,-8.1999 -19.797,-8.1999l-8.191,0l-29.756,-29.7527z"/>
  <path id="svg_3" stroke-width="2" stroke="rgb(154, 230, 180)" d="m149.202,32.32l29.049,29.0456l-88.4483,0c-15.464,0 -28,12.536 -28,28l0,10.2202l-30.4014,30.3982l-30.4013,-30.3982l0,-13.5858c0,-46.9442 38.0558,-85 85,-85l93.111,0l-29.909,29.9058l-0.707,0.7071l0.707,0.7071zm342.987,29.0456l-90.16,0l29.048,-29.0456l0.708,-0.7071l-0.708,-0.7071l-29.909,-29.9058l94.835,0c46.945,0 84.997,38.0557 84.997,85l0,4.7685l-30.616,30.6135l-30.187,-30.1834l0,-1.8343c0,-15.4645 -12.545,-27.9987 -28.008,-27.9987zm-283.911,137.6344l-15.632,0c2.098,-2.035 5.616,-5.528 9.742,-9.654c5.947,-5.946 13.211,-13.259 19.463,-19.569l0.701,-0.707l-0.704,-0.704l-29.305,-29.301l13.933,0c7.425,0 14.547,-2.95 19.798,-8.2l25.644,-25.642l44.091,-44.0857l36.102,-36.0982c15.296,-15.29469 36.007,-23.9294 57.627,-24.03806l30.615,30.61186l-29.76,29.7563c-6.173,0.1081 -12.071,2.6072 -16.444,6.9805l-35.464,35.4593l-44.091,44.086l-26.215,26.212c-15.94,15.939 -37.559,24.893 -60.101,24.893zm311.919,-87.935l0,-8.436l29.48,29.476l0.707,0.707l0.707,-0.707l29.909,-29.906l0,11.801c0,46.944 -38.059,85 -85.003,85l-97.73,0l-29.93,-29.927l30.012,-30.008l93.84,0c15.464,0 28.008,-12.536 28.008,-28zm-458.3943,-0.252l0,0.252c0,15.464 12.536,28 28,28l91.3083,0l30.011,30.007l-30.01,29.928l-95.112,0c-46.9442,0 -85,-38.056 -85,-85l0,-3.187l29.6919,29.892l0.7094,0.714l0.7095,-0.714l29.6919,-29.892zm295.8093,58.967l29.223,29.22l-4.51,0c-22.542,0 -44.161,-8.954 -60.101,-24.893l-21.852,-21.849l42.677,-42.672l21.281,21.279c5.251,5.25 12.372,8.2 19.797,8.2l2.79,0l-29.305,29.301l-0.707,0.707l0.707,0.707zm-197.686,-138.1671l30.617,-30.6129l8.701,0c22.541,0 44.162,8.95405 60.102,24.8926l30.885,30.8816l-42.677,42.6719l-29.884,-29.8806c-5.25,-5.2503 -12.372,-8.1999 -19.797,-8.1999l-8.191,0l-29.756,-29.7527z"/>
  <text transform="rotate(-45 293.664 104)" font-style="normal" font-weight="normal" xml:space="preserve" text-anchor="start" font-family="'Verdana'" font-weight="bold" font-size="18" id="svg_4" y="110.5" x="251" stroke-width="0" stroke="#000" fill="#48bb78">COLLECT</text>
  <text font-style="normal" font-weight="normal" xml:space="preserve" text-anchor="start" font-family="'Verdana'" font-weight="bold" font-size="18" id="svg_5" y="37.5" x="447" stroke-width="0" stroke="#000" fill="#48bb78">MANAGE</text>
  <text stroke="#000" font-style="normal" font-weight="normal" xml:space="preserve" text-anchor="start" font-family="'Verdana'" font-weight="bold" font-size="18" id="svg_6" y="175.5" x="440" stroke-width="0" fill="#48bb78">LABEL</text>
  <text transform="rotate(45 240.906 53)" font-style="normal" font-weight="normal" xml:space="preserve" text-anchor="start" font-family="'Verdana'"font-weight="bold" font-size="18" id="svg_7" y="59.5" x="212" stroke-width="0" stroke="#000" fill="#48bb78">TRAIN</text>
  <text font-style="normal" font-weight="normal" xml:space="preserve" text-anchor="start" font-family="'Verdana'" font-weight="bold" font-size="18" id="svg_8" y="37.5" x="45" stroke-width="0" stroke="#000" fill="#48bb78">VALIDATE</text>
  <text font-style="normal" font-weight="normal" xml:space="preserve" text-anchor="start" font-family="'Verdana'" font-weight="bold" font-size="18" id="svg_9" y="176.5" x="92" stroke-width="0" stroke="#000" fill="#48bb78">DEPLOY</text>
 </g>
</svg>
